<svg width="499" height="119" viewBox="0 0 499 119" fill="none" xmlns="http://www.w3.org/2000/svg">
<path d="M-89.4329 -133.031C-79.0392 -104.248 -63.5924 -73.0232 -41.8623 -54.8269C6.3271 -14.4664 16.6544 -1.20786 34.4437 79.5131C52.233 160.234 134.844 92.1942 134.844 92.1942C134.844 92.1942 159.514 75.4711 200.867 98.8568C212.312 104.391 225.072 106.589 237.698 105.201C272.12 103.469 336.839 89.0998 389.573 13.2055C465.305 -95.7648 509.48 -128.056 496.861 -224.923C484.243 -321.789 469.894 -371.951 360.89 -388.674C286.58 -400.067 225.352 -439.621 193.869 -463.628C191.733 -465.264 189.553 -466.812 187.328 -468.285C174.389 -476.924 159.872 -482.898 144.619 -485.859C129.366 -488.819 113.68 -488.709 98.4703 -485.534C69.3368 -479.006 42.2979 -465.239 19.8293 -445.491C9.38311 -436.616 -0.136444 -426.694 -8.582 -415.88C-23.0081 -397.421 -34.3139 -376.702 -42.0464 -354.554C-52.9066 -322.581 -65.8702 -291.368 -80.8513 -261.123C-89.03 -245.551 -94.5903 -228.726 -97.3073 -211.331C-101.142 -184.978 -98.4373 -158.08 -89.4329 -133.031Z" fill="#828A9E"/>
<path d="M87.8041 59.1477C90.1967 59.1466 92.4944 58.2065 94.2074 56.5277C95.9205 54.849 96.9135 52.5644 96.9749 50.1606C98.6176 -5.16849 67.5104 -32.1593 66.1771 -33.2772C64.3095 -34.7555 61.944 -35.4478 59.5787 -35.2085C57.2133 -34.9692 55.0327 -33.8168 53.4958 -31.994C51.9589 -30.1713 51.1857 -27.8203 51.339 -25.4361C51.4923 -23.0519 52.5601 -20.8205 54.3176 -19.2117C55.452 -18.2271 79.996 3.67057 78.6259 49.5906C78.5895 50.8014 78.7909 52.0076 79.2184 53.1402C79.6459 54.2729 80.2913 55.3098 81.1176 56.1917C81.9439 57.0737 82.9349 57.7835 84.0342 58.2805C85.1334 58.7775 86.3193 59.0521 87.5242 59.0885L87.8041 59.1477Z" fill="#62667C"/>
<path d="M200.474 -6.01409C215.84 -20.0372 222.935 -37.338 216.322 -44.6567C209.709 -51.9753 191.891 -46.5403 176.526 -32.5172C161.161 -18.4942 154.065 -1.19329 160.678 6.12535C167.292 13.444 185.109 8.00898 200.474 -6.01409Z" fill="#62667C"/>
<path d="M352.12 -25.5743C360.057 -41.7622 356.108 -60.027 343.299 -66.37C330.491 -72.713 313.673 -64.7321 305.736 -48.5443C297.799 -32.3565 301.748 -14.0916 314.557 -7.74866C327.365 -1.40568 344.183 -9.38651 352.12 -25.5743Z" fill="#62667C"/>
</svg>
